<svg width="14" height="14" viewBox="0 0 14 14" fill="none" xmlns="http://www.w3.org/2000/svg">
<path d="M10.1785 13.2721C9.51935 13.2721 8.82518 13.1146 8.10768 12.8113C7.40768 12.5138 6.70185 12.1055 6.01352 11.6096C5.33102 11.108 4.67185 10.548 4.04768 9.93547C3.42935 9.3113 2.86935 8.65214 2.37352 7.97547C1.87185 7.27547 1.46935 6.57547 1.18352 5.8988C0.880182 5.17547 0.728516 4.47547 0.728516 3.8163C0.728516 3.3613 0.810182 2.92964 0.967682 2.52714C1.13102 2.11297 1.39352 1.72797 1.74935 1.39547C2.19852 0.952135 2.71185 0.730469 3.26018 0.730469C3.48768 0.730469 3.72102 0.782969 3.91935 0.876302C4.14685 0.981302 4.33935 1.1388 4.47935 1.3488L5.83268 3.2563C5.95518 3.42547 6.04852 3.5888 6.11268 3.75214C6.18852 3.92714 6.22935 4.10214 6.22935 4.2713C6.22935 4.49297 6.16518 4.7088 6.04268 4.91297C5.95518 5.07047 5.82102 5.23964 5.65185 5.4088L5.25518 5.82297C5.26102 5.84047 5.26685 5.85214 5.27268 5.8638C5.34268 5.9863 5.48268 6.1963 5.75102 6.5113C6.03685 6.83797 6.30518 7.13547 6.57352 7.40964C6.91768 7.74797 7.20352 8.0163 7.47185 8.23797C7.80435 8.51797 8.02018 8.65797 8.14852 8.72214L8.13685 8.7513L8.56268 8.3313C8.74352 8.15047 8.91852 8.0163 9.08768 7.9288C9.40852 7.73047 9.81685 7.69547 10.2252 7.86464C10.3768 7.9288 10.5402 8.0163 10.7152 8.1388L12.6518 9.51547C12.8677 9.6613 13.0252 9.84797 13.1185 10.0696C13.206 10.2913 13.2468 10.4955 13.2468 10.6996C13.2468 10.9796 13.1827 11.2596 13.0602 11.5221C12.9377 11.7846 12.786 12.0121 12.5935 12.2221C12.261 12.5896 11.8993 12.8521 11.4793 13.0213C11.0768 13.1846 10.6393 13.2721 10.1785 13.2721ZM3.26018 1.60547C2.93935 1.60547 2.64185 1.74547 2.35602 2.02547C2.08768 2.2763 1.90102 2.55047 1.78435 2.84797C1.66185 3.1513 1.60352 3.47214 1.60352 3.8163C1.60352 4.3588 1.73185 4.94797 1.98852 5.55464C2.25102 6.17297 2.61852 6.81464 3.08518 7.4563C3.55185 8.09797 4.08268 8.72214 4.66602 9.3113C5.24935 9.8888 5.87935 10.4255 6.52685 10.898C7.15685 11.3588 7.80435 11.7321 8.44602 12.0005C9.44352 12.4263 10.3768 12.5255 11.1468 12.2046C11.4443 12.0821 11.7068 11.8955 11.946 11.6271C12.0802 11.4813 12.1852 11.3238 12.2727 11.1371C12.3427 10.9913 12.3777 10.8396 12.3777 10.688C12.3777 10.5946 12.3602 10.5013 12.3135 10.3963C12.296 10.3613 12.261 10.2971 12.1502 10.2213L10.2135 8.84464C10.0968 8.76297 9.99185 8.70464 9.89268 8.6638C9.76435 8.6113 9.71185 8.5588 9.51352 8.6813C9.39685 8.73964 9.29185 8.82714 9.17518 8.9438L8.73185 9.3813C8.50435 9.60297 8.15435 9.65547 7.88602 9.5563L7.72852 9.4863C7.48935 9.35797 7.20935 9.15964 6.90018 8.89714C6.62018 8.65797 6.31685 8.37797 5.94935 8.0163C5.66352 7.72464 5.37768 7.41547 5.08018 7.0713C4.80602 6.75047 4.60768 6.4763 4.48518 6.2488L4.41518 6.0738C4.38018 5.93964 4.36852 5.8638 4.36852 5.78214C4.36852 5.57214 4.44435 5.38547 4.59018 5.23964L5.02768 4.78464C5.14435 4.66797 5.23185 4.55714 5.29018 4.45797C5.33685 4.38214 5.35435 4.31797 5.35435 4.25964C5.35435 4.21297 5.33685 4.14297 5.30768 4.07297C5.26685 3.97964 5.20268 3.87464 5.12102 3.7638L3.76768 1.85047C3.70935 1.7688 3.63935 1.71047 3.55185 1.66964C3.45852 1.6288 3.35935 1.60547 3.26018 1.60547ZM8.13685 8.75714L8.04352 9.1538L8.20102 8.74547C8.17185 8.73964 8.14852 8.74547 8.13685 8.75714Z" fill="white"/>
<path d="M10.7917 5.6862C10.5525 5.6862 10.3542 5.48786 10.3542 5.2487C10.3542 5.0387 10.1442 4.6012 9.79417 4.22786C9.45 3.86036 9.07083 3.64453 8.75 3.64453C8.51083 3.64453 8.3125 3.4462 8.3125 3.20703C8.3125 2.96786 8.51083 2.76953 8.75 2.76953C9.31583 2.76953 9.91083 3.07286 10.43 3.62703C10.9142 4.1462 11.2292 4.78203 11.2292 5.2487C11.2292 5.48786 11.0308 5.6862 10.7917 5.6862Z" fill="white"/>
<path d="M12.8333 5.6888C12.5942 5.6888 12.3958 5.49047 12.3958 5.2513C12.3958 3.2388 10.7625 1.60547 8.75 1.60547C8.51083 1.60547 8.3125 1.40714 8.3125 1.16797C8.3125 0.928802 8.51083 0.730469 8.75 0.730469C11.2408 0.730469 13.2708 2.76047 13.2708 5.2513C13.2708 5.49047 13.0725 5.6888 12.8333 5.6888Z" fill="white"/>
</svg>
