<svg width="15" height="9" viewBox="0 0 15 9" fill="none" xmlns="http://www.w3.org/2000/svg">
<path d="M6.9147 8.14444L0.239632 1.80302C0.0851212 1.65635 -6.38429e-08 1.46055 -5.47174e-08 1.25179C-4.55919e-08 1.04302 0.0851212 0.847231 0.239632 0.700561L0.731091 0.233559C1.05133 -0.0703224 1.57182 -0.0703224 1.89157 0.233559L7.49689 5.55861L13.1084 0.227651C13.2629 0.0809816 13.4689 5.88745e-07 13.6885 5.98345e-07C13.9084 6.07956e-07 14.1144 0.0809817 14.269 0.227651L14.7604 0.694653C14.9149 0.841439 15 1.03711 15 1.24588C15 1.45465 14.9149 1.65044 14.7604 1.79711L8.0792 8.14444C7.9242 8.29146 7.71725 8.37221 7.49725 8.37175C7.2764 8.37221 7.06957 8.29146 6.9147 8.14444Z" fill="#666666"/>
</svg>
