<svg width="25" height="24" viewBox="0 0 25 24" fill="none" xmlns="http://www.w3.org/2000/svg">
<g clip-path="url(#clip0_2073_4678)">
<path d="M21.6016 23.25H16.2891C14.8438 23.25 13.6719 22.125 13.6719 20.7375V13.875C13.6719 13.4625 14.0234 13.125 14.4531 13.125H21.6016C23.0469 13.125 24.2188 14.25 24.2188 15.6375V20.7375C24.2188 22.125 23.0469 23.25 21.6016 23.25ZM15.2344 14.625V20.7375C15.2344 21.3 15.7031 21.75 16.2891 21.75H21.6016C22.1875 21.75 22.6562 21.3 22.6562 20.7375V15.6375C22.6562 15.075 22.1875 14.625 21.6016 14.625H15.2344Z" fill="white"/>
<path d="M8.71094 23.25H3.39844C1.95312 23.25 0.78125 22.125 0.78125 20.7375V15.6375C0.78125 14.25 1.95312 13.125 3.39844 13.125H10.5469C10.9766 13.125 11.3281 13.4625 11.3281 13.875V20.7375C11.3281 22.125 10.1562 23.25 8.71094 23.25ZM3.39844 14.625C2.8125 14.625 2.34375 15.075 2.34375 15.6375V20.7375C2.34375 21.3 2.8125 21.75 3.39844 21.75H8.71094C9.29688 21.75 9.76562 21.3 9.76562 20.7375V14.625H3.39844Z" fill="white"/>
<path d="M21.6016 10.875H14.4531C14.0234 10.875 13.6719 10.5375 13.6719 10.125V3.2625C13.6719 1.875 14.8438 0.75 16.2891 0.75H21.6016C23.0469 0.75 24.2188 1.875 24.2188 3.2625V8.3625C24.2188 9.75 23.0469 10.875 21.6016 10.875ZM15.2344 9.375H21.6016C22.1875 9.375 22.6562 8.925 22.6562 8.3625V3.2625C22.6562 2.7 22.1875 2.25 21.6016 2.25H16.2891C15.7031 2.25 15.2344 2.7 15.2344 3.2625V9.375Z" fill="white"/>
<path d="M10.5469 10.875H3.39844C1.95312 10.875 0.78125 9.75 0.78125 8.3625V3.2625C0.78125 1.875 1.95312 0.75 3.39844 0.75H8.71094C10.1562 0.75 11.3281 1.875 11.3281 3.2625V10.125C11.3281 10.5375 10.9766 10.875 10.5469 10.875ZM3.39844 2.25C2.8125 2.25 2.34375 2.7 2.34375 3.2625V8.3625C2.34375 8.925 2.8125 9.375 3.39844 9.375H9.76562V3.2625C9.76562 2.7 9.29688 2.25 8.71094 2.25H3.39844Z" fill="white"/>
</g>
<defs>
<clipPath id="clip0_2073_4678">
<rect width="25" height="24" fill="white"/>
</clipPath>
</defs>
</svg>
