<svg width="24" height="24" viewBox="0 0 24 24" fill="none" xmlns="http://www.w3.org/2000/svg">
<path fill-rule="evenodd" clip-rule="evenodd" d="M2.625 12C2.625 11.3787 3.12868 10.875 3.75 10.875H20.25C20.8713 10.875 21.375 11.3787 21.375 12C21.375 12.6213 20.8713 13.125 20.25 13.125H3.75C3.12868 13.125 2.625 12.6213 2.625 12Z" fill="black"/>
<path fill-rule="evenodd" clip-rule="evenodd" d="M11.2955 4.45451C11.7348 4.89385 11.7348 5.60615 11.2955 6.0455L5.34099 12L11.2955 17.9545C11.7348 18.3938 11.7348 19.1062 11.2955 19.5455C10.8562 19.9848 10.1438 19.9848 9.70448 19.5455L2.95451 12.7955C2.51516 12.3562 2.51516 11.6438 2.95451 11.2045L9.70448 4.45451C10.1438 4.01516 10.8562 4.01516 11.2955 4.45451Z" fill="black"/>
</svg>
