<svg width="16" height="17" viewBox="0 0 16 17" fill="none" xmlns="http://www.w3.org/2000/svg">
<g clip-path="url(#clip0_1_59)">
<path d="M4.08685 8.97672L10.586 15.8178C10.7363 15.9762 10.937 16.0634 11.151 16.0634C11.3649 16.0634 11.5656 15.9762 11.7159 15.8178L12.1945 15.3142C12.506 14.9859 12.506 14.4525 12.1945 14.1248L6.73701 8.38005L12.2006 2.62892C12.3509 2.47057 12.4339 2.25947 12.4339 2.03437C12.4339 1.80903 12.3509 1.59793 12.2006 1.43945L11.722 0.935889C11.5715 0.777535 11.371 0.690296 11.157 0.690296C10.9431 0.690296 10.7424 0.777535 10.5921 0.935889L4.08685 7.78325C3.93618 7.94211 3.85342 8.1542 3.8539 8.37968C3.85342 8.60602 3.93618 8.81799 4.08685 8.97672Z" fill="white"/>
</g>
<defs>
<clipPath id="clip0_1_59">
<rect width="14.6045" height="15.3731" fill="white" transform="matrix(-1 0 0 -1 15.4437 16.0634)"/>
</clipPath>
</defs>
</svg>
