<svg width="30" height="30" viewBox="0 0 30 30" fill="none" xmlns="http://www.w3.org/2000/svg">
<path d="M25.1795 23.4125L21.1257 19.3586C22.3543 17.7502 23.0281 15.7994 23.0284 13.7408C23.0284 11.2601 22.0622 8.92761 20.3077 7.17346C18.5536 5.41931 16.2214 4.45312 13.7403 4.45312C11.2596 4.45312 8.92709 5.41931 7.17294 7.17346C3.55173 10.795 3.55173 16.6873 7.17294 20.3082C8.92709 22.0627 11.2596 23.0289 13.7403 23.0289C15.7989 23.0286 17.7497 22.3548 19.3581 21.1262L23.412 25.1801C23.6558 25.4242 23.9759 25.5463 24.2957 25.5463C24.6156 25.5463 24.9357 25.4242 25.1795 25.1801C25.6678 24.6921 25.6678 23.9005 25.1795 23.4125ZM8.94052 18.5406C6.29404 15.8942 6.29434 11.5878 8.94052 8.94104C10.2226 7.6593 11.9273 6.95312 13.7403 6.95312C15.5537 6.95312 17.2581 7.6593 18.5401 8.94104C19.8222 10.2231 20.5284 11.9278 20.5284 13.7408C20.5284 15.5542 19.8222 17.2586 18.5401 18.5406C17.2581 19.8227 15.5537 20.5289 13.7403 20.5289C11.9273 20.5289 10.2226 19.8227 8.94052 18.5406Z" fill="white"/>
</svg>
